# xmcd
#
# Track frame offsets:
#	150
#	13070
#	30617
#
# Disc length: 582 seconds
# Revision: 0
# Processed by: cddbd v1.5.2PL0 Copyright (c) Steve Scherf et al.
# Submitted via: dBpowerAMP V12.0
#
DISCID=1a024403
DTITLE=The Dreamcatcher Bluegrass Band - Dreamcatcher (Promotional EP)
DYEAR=2018
DGENRE=Bluegrass
TTITLE0=Carolina Bound
TTITLE1=I Haven't Seen Mary in Years
TTITLE2=Girl With the Sparkling Eyes
EXTD=
EXTT0=
EXTT1=
EXTT2=
PLAYORDER=
